<svg width="40" height="40" viewBox="0 0 40 40" fill="none" xmlns="http://www.w3.org/2000/svg">
<rect width="40" height="40" rx="20" fill="#FBEFCE" fill-opacity="0.24"/>
<path d="M26.2846 14.2866H27.4275M13.1417 8.57227H26.856C29.3808 8.57227 31.4275 10.619 31.4275 13.1437V26.858C31.4275 29.3827 29.3808 31.4294 26.856 31.4294H13.1417C10.617 31.4294 8.57031 29.3827 8.57031 26.858V13.1437C8.57031 10.619 10.617 8.57227 13.1417 8.57227ZM19.9989 24.5723C17.4742 24.5723 15.4275 22.5256 15.4275 20.0008C15.4275 17.4761 17.4742 15.4294 19.9989 15.4294C22.5236 15.4294 24.5703 17.4761 24.5703 20.0008C24.5703 22.5256 22.5236 24.5723 19.9989 24.5723Z" stroke="#FEFEFE" stroke-width="3"/>
</svg>
