<svg width="40" height="40" viewBox="0 0 40 40" fill="none" xmlns="http://www.w3.org/2000/svg">
<rect width="40" height="40" rx="20" fill="#FBEFCE" fill-opacity="0.24"/>
<path fill-rule="evenodd" clip-rule="evenodd" d="M29.0933 12.3184C30.0967 12.588 30.8905 13.3818 31.1601 14.3852C31.6543 16.2123 31.6693 20.0014 31.6693 20.0014C31.6693 20.0014 31.6693 23.8054 31.175 25.6175C30.9055 26.621 30.1117 27.4147 29.1083 27.6843C27.2961 28.1785 20.0026 28.1785 20.0026 28.1785C20.0026 28.1785 12.7091 28.1785 10.8969 27.6843C9.89349 27.4147 9.09974 26.621 8.83016 25.6175C8.33594 23.7904 8.33594 20.0014 8.33594 20.0014C8.33594 20.0014 8.33594 16.2123 8.81518 14.4002C9.08476 13.3967 9.87851 12.603 10.8819 12.3334C12.6941 11.8392 19.9876 11.8242 19.9876 11.8242C19.9876 11.8242 27.2812 11.8242 29.0933 12.3184ZM23.7168 20.0014L17.6663 23.5059V16.4969L23.7168 20.0014Z" fill="#FEFEFE"/>
</svg>
