<svg width="700" height="102" viewBox="0 0 1000 152" fill="none" xmlns="http://www.w3.org/2000/svg">
<path d="M659.484 0.0195312H693.49L755.121 95.9086V0.0195312H785.346V151.936H752.916L689.735 53.5283V151.936H659.511V0.0195312H659.484Z" fill="#E0E0E0"/>
<path d="M848.426 151.948H816.205V0.03125H848.426V151.948Z" fill="#D8E6F6"/>
<path d="M335.966 0H222.131V26.9086H335.966V0Z" fill="#E0E0E0"/>
<path d="M335.966 58.6074H222.131V85.516H335.966V58.6074Z" fill="#E0E0E0"/>
<path d="M335.966 125.041H222.131V151.95H335.966V125.041Z" fill="#BEC9C6"/>
<path d="M1000 0L898.113 101.132V62.6068L958.09 0H1000Z" fill="#E0E0E0"/>
<path d="M1000 151.698L898.113 50.5664V89.0916L958.09 151.698H1000Z" fill="#C9C3BE"/>
<path d="M879.285 152H909.51V0.340485H879.285V152Z" fill="#E0E0E0"/>
<path d="M484.951 0L383.064 101.132V62.6068L443.041 0H484.951Z" fill="#E0E0E0"/>
<path d="M484.951 151.698L383.064 50.5664V89.0916L443.041 151.698H484.951Z" fill="#E0E0E0"/>
<path d="M364.205 152H394.43V0.340485H364.205V152Z" fill="#E0E0E0"/>
<path d="M628.627 58.6074H502.766V85.516H628.627V58.6074Z" fill="#F2D6D6"/>
<path d="M628.627 0H502.766V26.9086H628.627V0Z" fill="#E0E0E0"/>
<path d="M532.99 0H502.766V151.917H532.99V0Z" fill="#E0E0E0"/>
<path d="M628.639 0H598.414V151.917H628.639V0Z" fill="#E0E0E0"/>
<path d="M95.6371 95.9343L34.0061 0.0195312H0V151.962H30.2247V53.554L95.6371 151.962L161.023 53.554V151.962H191.248V0.0195312H157.268L95.6371 95.9343Z" fill="#E0E0E0"/>
</svg>
