<svg class="interactive-svg" width="170" height="29" viewBox="0 0 207 29" fill="none" xmlns="http://www.w3.org/2000/svg">
<path d="M123.361 0.275391H129.722L141.251 18.3715V0.275391H146.904V28.9449H140.838L129.02 10.3735V28.9449H123.366V0.275391H123.361Z" fill="#1E3A8A"/>
<path d="M158.703 28.9468H152.676V0.277344H158.703V28.9468Z" fill="#1E3A8A"/>
<path d="M62.8443 0.271484H41.5508V5.34964H62.8443V0.271484Z" fill="#1E3A8A"/>
<path d="M62.8443 11.332H41.5508V16.4102H62.8443V11.332Z" fill="#1E3A8A"/>
<path d="M62.8443 23.8691H41.5508V28.9473H62.8443V23.8691Z" fill="#1E3A8A"/>
<path d="M187.055 0.271484L167.996 19.357V12.0866L179.215 0.271484H187.055Z" fill="#1E3A8A"/>
<path d="M187.055 28.9L167.996 9.81445V17.0849L179.215 28.9H187.055Z" fill="#1E3A8A"/>
<path d="M164.475 28.957H170.129V0.336023H164.475V28.957Z" fill="#1E3A8A"/>
<path d="M90.7128 0.271484L71.6543 19.357V12.0866L82.8733 0.271484H90.7128Z" fill="#1E3A8A"/>
<path d="M90.7128 28.9L71.6543 9.81445V17.0849L82.8733 28.9H90.7128Z" fill="#1E3A8A"/>
<path d="M68.1276 28.957H73.7812V0.336023H68.1276V28.957Z" fill="#1E3A8A"/>
<path d="M117.588 11.332H94.0449V16.4102H117.588V11.332Z" fill="#1E3A8A"/>
<path d="M117.588 0.271484H94.0449V5.34964H117.588V0.271484Z" fill="#1E3A8A"/>
<path d="M99.6986 0.271484H94.0449V28.941H99.6986V0.271484Z" fill="#1E3A8A"/>
<path d="M117.591 0.271484H111.938V28.941H117.591V0.271484Z" fill="#1E3A8A"/>
<path d="M196.315 0V1.27075H194.144V7.16859H192.616V1.27075H190.436V0H196.315Z" fill="#1E3A8A"/>
<path d="M202.044 4.51553L199.171 0H197.584V7.1492H198.994V2.51725L202.044 7.1492L205.094 2.51725V7.1492H206.504V0H204.918L202.044 4.51553Z" fill="#1E3A8A"/>
<path d="M17.8895 18.3763L6.36102 0.275391H0V28.9497H5.6537V10.3784L17.8895 28.9497L30.1203 10.3784V28.9497H35.774V0.275391H29.4179L17.8895 18.3763Z" fill="#1E3A8A"/>
</svg>
