<svg width="28" height="28" viewBox="0 0 32 32" fill="none" xmlns="http://www.w3.org/2000/svg">
<path d="M20.5239 6.94602L22.4038 10.706C22.6572 11.226 23.3372 11.7193 23.9105 11.826L27.3105 12.386C29.4839 12.746 29.9905 14.3193 28.4305 15.8927L25.7772 18.546C25.3372 18.986 25.0839 19.8527 25.2305 20.4794L25.9905 23.7593C26.5905 26.346 25.2038 27.3594 22.9238 25.9994L19.7372 24.106C19.1638 23.7594 18.2038 23.7594 17.6305 24.106L14.4438 25.9994C12.1638 27.346 10.7772 26.346 11.3772 23.7593L12.1372 20.4794C12.2838 19.866 12.0305 18.9994 11.5905 18.546L8.93719 15.8927C7.37719 14.3327 7.88385 12.7594 10.0572 12.386L13.4572 11.826C14.0305 11.7327 14.7105 11.226 14.9638 10.706L16.8438 6.94602C17.8438 4.90602 19.4972 4.90602 20.5239 6.94602Z" fill="#1E3A8A"/>
<path opacity="0.4" d="M10.6665 7.66602H2.6665C2.11984 7.66602 1.6665 7.21268 1.6665 6.66602C1.6665 6.11935 2.11984 5.66602 2.6665 5.66602H10.6665C11.2132 5.66602 11.6665 6.11935 11.6665 6.66602C11.6665 7.21268 11.2132 7.66602 10.6665 7.66602Z" fill="#1E3A8A"/>
<path opacity="0.4" d="M6.6665 26.334H2.6665C2.11984 26.334 1.6665 25.8807 1.6665 25.334C1.6665 24.7873 2.11984 24.334 2.6665 24.334H6.6665C7.21317 24.334 7.6665 24.7873 7.6665 25.334C7.6665 25.8807 7.21317 26.334 6.6665 26.334Z" fill="#1E3A8A"/>
<path opacity="0.4" d="M3.99984 17H2.6665C2.11984 17 1.6665 16.5467 1.6665 16C1.6665 15.4533 2.11984 15 2.6665 15H3.99984C4.5465 15 4.99984 15.4533 4.99984 16C4.99984 16.5467 4.5465 17 3.99984 17Z" fill="#1E3A8A"/>
</svg>
